<svg width="128" height="36" viewBox="0 0 128 36" fill="none" xmlns="http://www.w3.org/2000/svg">
<path d="M0.0579935 2.96129C0.0248544 4.53733 0 12.6 0 20.8783V35.9171H7.91197H15.8239V35.129V34.341H8.69903H1.57411V18V1.65899H17.9366H34.299V18V34.341H26.7599H19.2207V32.7401C19.2207 30.9484 19.2787 30.6332 19.7261 29.9281C20.1155 29.3226 20.7368 28.8995 22.7335 27.8959C24.8875 26.8175 25.4757 26.4359 26.2296 25.6728C26.6936 25.2083 26.909 24.8931 27.2073 24.2959C27.7375 23.2009 27.87 22.471 27.812 20.87C27.7706 19.3936 27.5801 18.6304 26.9256 17.2949C26.4036 16.2166 25.8568 15.5032 24.0259 13.4793C23.1974 12.5668 22.2944 11.5465 22.021 11.2065C20.9771 9.90415 19.9581 8.23687 18.9639 6.19632C18.6076 5.45807 18.3094 4.9106 18.3094 4.97696C18.3094 5.17604 17.0667 7.65623 16.4702 8.66821C15.5008 10.294 14.7552 11.2562 12.8 13.3963C10.2649 16.1668 9.59379 17.2286 9.0967 19.2194C8.83987 20.2479 8.83987 22.2221 9.0967 23.1512C9.36181 24.13 9.78434 24.8848 10.4554 25.5982C11.2259 26.4111 11.8887 26.8341 14.2084 28.012C15.8819 28.8581 16.1719 29.0406 16.6193 29.4802C16.9755 29.8452 17.1827 30.1272 17.3235 30.4839C17.514 30.965 17.5223 31.0728 17.5472 33.4452L17.572 35.9171H26.7267H35.8731V18V0.0829544H17.9946H0.107702L0.0579935 2.96129ZM18.6408 12.318V17.0046H19.8835H21.1262V15.3041C21.1262 13.6618 21.1179 13.6037 20.9605 13.6037C20.8114 13.6037 20.7948 13.5456 20.7948 12.9816V12.3594H21.4162H22.0375V12.9816C22.0375 13.5871 22.0293 13.6037 21.8304 13.6037H21.6233V15.3041V17.0046H21.8304C21.9795 17.0046 22.0375 16.9631 22.0375 16.8387C22.0375 16.6894 22.0955 16.6728 22.6589 16.6728H23.2803V17.3364V18H22.6672C22.0541 18 22.0458 18 22.021 17.7677C22.0044 17.6101 21.9464 17.5355 21.8139 17.5189C21.6233 17.494 21.6233 17.5023 21.6233 18.4894V19.4931H20.132H18.6408V20.4885V21.4839H21.0434H23.4542L23.4294 20.7124C23.4045 19.9908 23.3962 19.9493 23.2223 19.9244C23.04 19.8995 23.0317 19.8581 23.0317 19.2774V18.6636H23.6531H24.2744V19.2857C24.2744 19.8498 24.2579 19.9078 24.1087 19.9078C23.9513 19.9078 23.943 19.9659 23.943 20.6959V21.4839H24.4401C24.8792 21.4839 24.9372 21.4673 24.9372 21.318C24.9372 21.1687 24.9952 21.1521 25.5586 21.1521H26.1799V21.7742V22.3963H25.5586C24.9538 22.3963 24.9372 22.388 24.9372 22.1889C24.9372 21.9899 24.9124 21.9816 24.4401 21.9816H23.943V23.8065V25.6313H22.866H21.789V25.9631C21.789 26.2369 21.8139 26.2949 21.9547 26.2949C22.1038 26.2949 22.1204 26.353 22.1204 26.9585V27.6221H21.499H20.8777V26.9585C20.8777 26.3032 20.8777 26.2949 21.0848 26.2949C21.2753 26.2949 21.2919 26.2618 21.2919 25.9631V25.6313H19.9663H18.6408V27.7465V29.8618H18.3922H18.1437V28.2028V26.5438H15.3683H12.5929V25.2166C12.5929 23.9475 12.5846 23.8894 12.4272 23.8894C12.2781 23.8894 12.2615 23.8313 12.2615 23.2258V22.5622H12.8828H13.5042V23.2258C13.5042 23.8811 13.5042 23.8894 13.2971 23.8894H13.09V24.9677V26.0461H15.6168H18.1437V23.6406V21.235H16.901H15.6583V22.5207V23.8065H15.8654C16.0642 23.8065 16.0725 23.823 16.0725 24.4286V25.0507H15.4511H14.8298V24.4286C14.8298 23.8645 14.8463 23.8065 14.9955 23.8065C15.1529 23.8065 15.1612 23.7484 15.1612 22.5207V21.235H13.5456H11.9301V21.4424C11.9301 21.6415 11.9135 21.6498 11.3087 21.6498H10.6874V20.9862V20.3226H11.3087C11.9135 20.3226 11.9301 20.3309 11.9301 20.53V20.7373H13.5456H15.1612V19.8664V18.9954H16.6524H18.1437V17.8341V16.6728H17.3981C16.6607 16.6728 16.6524 16.6728 16.6524 16.8802C16.6524 17.0461 16.6939 17.0876 16.8595 17.0876C17.0584 17.0876 17.0667 17.1042 17.0667 17.7097V18.3318H16.4453H15.8239V17.7097C15.8239 17.1456 15.8405 17.0876 15.9896 17.0876C16.1139 17.0876 16.1553 17.0295 16.1553 16.8802V16.6728H15.3269H14.4984V16.0507C14.4984 15.553 14.4735 15.4286 14.3741 15.4286C14.2747 15.4286 14.2498 15.2959 14.2498 14.765V14.1014H14.8712H15.4926V14.765V15.4286H15.244C15.0038 15.4286 14.9955 15.4452 14.9955 15.8018V16.1751H15.5754H16.1553V14.4332V12.6912H17.1495H18.1437V10.1613V7.63134H18.3922H18.6408V12.318Z" fill="#233588"/>
<path d="M16.6525 14.682V16.1751H17.3981H18.1437V14.682V13.1889H17.3981H16.6525V14.682Z" fill="#233588"/>
<path d="M18.6407 18.2488V18.9954H19.8835H21.1262V18.2488V17.5023H19.8835H18.6407V18.2488Z" fill="#233588"/>
<path d="M15.6582 20.1152V20.7373H16.9009H18.1436V20.1152V19.4931H16.9009H15.6582V20.1152Z" fill="#233588"/>
<path d="M18.6407 23.5576V25.1336H19.9663H21.2919L21.2753 23.5742L21.2505 22.023L19.9497 21.9982L18.6407 21.9733V23.5576Z" fill="#233588"/>
<path d="M21.7889 23.5576V25.1336H22.6174H23.4459L23.4293 23.5742L23.4045 22.023L22.6008 21.9982L21.7889 21.9733V23.5576Z" fill="#233588"/>
<path d="M41.8133 12.9484C40.67 13.2138 39.8581 14.1346 39.8499 15.1549V15.5945H41.2168H42.5838V14.2258V12.8572L42.3601 12.8655C42.2276 12.8737 41.9873 12.9069 41.8133 12.9484Z" fill="white"/>
<path d="M43.4124 14.2258V15.5945H44.7793H46.1463V14.2258V12.8572H44.7793H43.4124V14.2258Z" fill="white"/>
<path d="M46.9747 14.2258V15.5945H48.3417H49.7087V14.2258V12.8572H48.3417H46.9747V14.2258Z" fill="white"/>
<path d="M50.4543 14.2258V15.5945H51.8213H53.1883V14.2258V12.8572H51.8213H50.4543V14.2258Z" fill="white"/>
<path d="M53.8512 14.2258V15.5945H55.2182H56.5852V15.3622C56.5852 14.9807 56.378 14.2922 56.1626 13.977C55.8809 13.5622 55.2264 13.1309 54.6382 12.9816C53.7849 12.7659 53.8512 12.6664 53.8512 14.2258Z" fill="white"/>
<path d="M62.3596 12.9484C61.2163 13.2138 60.4044 14.1346 60.3961 15.1549V15.5945H61.7217H63.0473V14.2258C63.0473 12.683 63.097 12.7742 62.3596 12.9484Z" fill="white"/>
<path d="M63.9586 14.2258V15.5945H65.2842H66.6098V14.2258V12.8572H65.2842H63.9586V14.2258Z" fill="white"/>
<path d="M67.521 14.2258V15.5945H68.8466H70.1721V14.2258V12.8572H68.8466H67.521V14.2258Z" fill="white"/>
<path d="M71.0006 14.2258V15.5945H72.3676H73.7346V14.2258V12.8572H72.3676H71.0006V14.2258Z" fill="white"/>
<path d="M74.3974 14.2258V15.5945H75.7727H77.1479L77.0899 15.1134C76.9491 13.9687 76.2532 13.2221 75.0436 12.9401C74.3477 12.7825 74.3974 12.6913 74.3974 14.2258Z" fill="white"/>
<path d="M83.0136 12.9733C81.8537 13.2968 81.2158 14.0102 81.1247 15.0719L81.0833 15.5945H82.4668H83.8421V14.2258V12.8572L83.6184 12.8655C83.4858 12.8655 83.2207 12.9152 83.0136 12.9733Z" fill="white"/>
<path d="M84.6705 14.2258V15.5945H86.0375H87.4045V14.2258V12.8572H86.0375H84.6705V14.2258Z" fill="white"/>
<path d="M88.233 14.2258V15.5945H89.6H90.967V14.2258V12.8572H89.6H88.233V14.2258Z" fill="white"/>
<path d="M91.7126 14.2258V15.5945H93.0796H94.4466V14.2258V12.8572H93.0796H91.7126V14.2258Z" fill="white"/>
<path d="M95.1094 14.2175V15.5945H96.4847H97.8682L97.8102 15.1134C97.6694 13.8774 96.8492 13.106 95.4656 12.8903L95.1094 12.8323V14.2175Z" fill="white"/>
<path d="M100.329 14.2258V15.5945H101.696H103.063V14.2258V12.8572H101.696H100.329V14.2258Z" fill="white"/>
<path d="M103.974 14.2258V15.5945H105.3H106.625V14.2258V12.8572H105.3H103.974V14.2258Z" fill="white"/>
<path d="M107.537 14.2258V15.5945H108.862H110.188V14.2258V12.8572H108.862H107.537V14.2258Z" fill="white"/>
<path d="M111.099 14.2258V15.5945H112.466H113.833V14.2258V12.8572H112.466H111.099V14.2258Z" fill="white"/>
<path d="M114.661 14.2258V15.5945H116.028H117.395V14.2258V12.8572H116.028H114.661V14.2258Z" fill="white"/>
<path d="M39.8499 17.7511V19.0783H41.2168H42.5838V17.7511V16.424H41.2168H39.8499V17.7511Z" fill="white"/>
<path d="M53.8511 17.7511V19.0783H55.2181H56.5851V17.7511V16.424H55.2181H53.8511V17.7511Z" fill="white"/>
<path d="M60.3961 17.7511V19.0783H61.7217H63.0473V17.7511V16.424H61.7217H60.3961V17.7511Z" fill="white"/>
<path d="M74.3975 17.7511V19.0783H75.7645H77.1314V17.7511V16.424H75.7645H74.3975V17.7511Z" fill="white"/>
<path d="M81.1082 17.7511V19.0783H82.4751H83.8421V17.7511V16.424H82.4751H81.1082V17.7511Z" fill="white"/>
<path d="M95.1094 17.7511V19.0783H96.4764H97.8434V17.7511V16.424H96.4764H95.1094V17.7511Z" fill="white"/>
<path d="M107.537 17.7511V19.0783H108.904H110.271V17.7511V16.424H108.904H107.537V17.7511Z" fill="white"/>
<path d="M39.8499 21.2765V22.6452H41.2168H42.5838V21.2765V19.9078H41.2168H39.8499V21.2765Z" fill="white"/>
<path d="M43.4124 21.2765V22.6452H44.7793H46.1463V21.2765V19.9078H44.7793H43.4124V21.2765Z" fill="white"/>
<path d="M46.9747 21.2765V22.6452H48.3417H49.7087V21.2765V19.9078H48.3417H46.9747V21.2765Z" fill="white"/>
<path d="M50.4543 21.2765V22.6452H51.8213H53.1883V21.2765V19.9078H51.8213H50.4543V21.2765Z" fill="white"/>
<path d="M60.3961 21.2765V22.6452H61.7217H63.0473V21.2765V19.9078H61.7217H60.3961V21.2765Z" fill="white"/>
<path d="M63.9586 21.2765V22.6452H65.2842H66.6098V21.2765V19.9078H65.2842H63.9586V21.2765Z" fill="white"/>
<path d="M67.521 21.2765V22.6452H68.8466H70.1721V21.2765V19.9078H68.8466H67.521V21.2765Z" fill="white"/>
<path d="M71.0006 21.2765V22.6452H72.3676H73.7346V21.2765V19.9078H72.3676H71.0006V21.2765Z" fill="white"/>
<path d="M81.1082 21.2765V22.6452H82.4751H83.8421V21.2765V19.9078H82.4751H81.1082V21.2765Z" fill="white"/>
<path d="M84.6705 21.2765V22.6452H86.0375H87.4045V21.2765V19.9078H86.0375H84.6705V21.2765Z" fill="white"/>
<path d="M88.233 21.2765V22.6452H89.6H90.967V21.2765V19.9078H89.6H88.233V21.2765Z" fill="white"/>
<path d="M91.7126 21.2765V22.6452H93.0796H94.4466V21.2765V19.9078H93.0796H91.7126V21.2765Z" fill="white"/>
<path d="M107.537 21.2765V22.6452H108.904H110.271V21.2765V19.9078H108.904H107.537V21.2765Z" fill="white"/>
<path d="M53.8511 21.3595C53.8511 22.1143 53.8759 22.7281 53.9174 22.7281C53.9505 22.7281 54.2156 22.6701 54.5139 22.5954C55.7234 22.3134 56.3945 21.6 56.5519 20.4221L56.6099 19.9908H55.2263H53.8511V21.3595Z" fill="white"/>
<path d="M74.3975 21.3595C74.3975 22.1143 74.4223 22.7281 74.4637 22.7281C74.4969 22.7281 74.762 22.6701 75.0602 22.5954C76.2698 22.3134 76.9409 21.6 77.0983 20.4221L77.1563 19.9908H75.7727H74.3975V21.3595Z" fill="white"/>
<path d="M95.1094 21.3678V22.7447L95.3828 22.6867C96.4184 22.4793 96.9817 22.1724 97.4208 21.5585C97.6528 21.2433 97.8434 20.6295 97.8434 20.1982V19.9908H96.4764H95.1094V21.3678Z" fill="white"/>
<path d="M39.8499 24.8433V26.212H41.2168H42.5838V24.8433V23.4746H41.2168H39.8499V24.8433Z" fill="white"/>
<path d="M60.3961 24.8433V26.212H61.7217H63.0473V24.8433V23.4746H61.7217H60.3961V24.8433Z" fill="white"/>
<path d="M81.1082 24.8433V26.212H82.4751H83.8421V24.8433V23.4746H82.4751H81.1082V24.8433Z" fill="white"/>
<path d="M107.537 24.8433V26.212H108.904H110.271V24.8433V23.4746H108.904H107.537V24.8433Z" fill="white"/>
<path d="M39.8499 28.3272V29.6959H41.2168H42.5838V28.3272V26.9585H41.2168H39.8499V28.3272Z" fill="white"/>
<path d="M60.3961 28.3272V29.6959H61.7217H63.0473V28.3272V26.9585H61.7217H60.3961V28.3272Z" fill="white"/>
<path d="M81.1082 28.3272V29.6959H82.4751H83.8421V28.3272V26.9585H82.4751H81.1082V28.3272Z" fill="white"/>
<path d="M107.537 28.3272V29.6959H108.904H110.271V28.3272V26.9585H108.904H107.537V28.3272Z" fill="white"/>
<path d="M44.655 33.2793C44.2325 33.4369 44.1497 33.6691 44.1745 34.6479C44.2077 35.7263 44.2988 35.8507 45.1107 35.9005C45.7486 35.9419 46.0138 35.8839 46.2292 35.6682C46.3783 35.5189 46.3949 35.3862 46.3949 34.5982C46.3949 33.7687 46.3783 33.6691 46.2043 33.47C46.0469 33.2793 45.9392 33.2378 45.4835 33.2129C45.1687 33.1963 44.8207 33.2212 44.655 33.2793ZM45.8895 33.7106C45.9558 33.7852 45.9806 34.1087 45.964 34.6396L45.9392 35.4608L45.3758 35.4857C45.0279 35.5023 44.7628 35.4691 44.6882 35.4111C44.6053 35.3447 44.5722 35.1041 44.5722 34.5401C44.5722 33.8931 44.5971 33.7521 44.7213 33.6857C44.9367 33.553 45.7735 33.5696 45.8895 33.7106Z" fill="white"/>
<path d="M47.331 33.2295C46.9334 33.3207 46.8091 33.6276 46.8091 34.5152C46.8091 34.9631 46.8422 35.4194 46.8836 35.5272C46.9913 35.8175 47.3807 35.9419 48.0187 35.9005C48.6732 35.859 48.8803 35.6848 48.8803 35.1622C48.8803 34.8719 48.8554 34.8387 48.6814 34.8387C48.5075 34.8387 48.4743 34.8802 48.4495 35.1456L48.4246 35.4608H47.8447H47.2647L47.2399 34.6396C47.2233 34.1088 47.2482 33.7852 47.3145 33.7106C47.4139 33.5945 48.0849 33.5447 48.3335 33.6442C48.4163 33.6774 48.466 33.7935 48.466 33.9346C48.466 34.1336 48.4992 34.1751 48.6732 34.1751C48.8554 34.1751 48.8803 34.1419 48.8803 33.9014C48.8803 33.4783 48.5903 33.2544 47.9938 33.2212C47.7287 33.2046 47.4304 33.2129 47.331 33.2295Z" fill="white"/>
<path d="M79.4345 33.271C78.9954 33.4369 78.9292 34.2912 79.3268 34.5567C79.4345 34.623 79.7825 34.706 80.1056 34.7309C80.6358 34.7724 80.7021 34.7972 80.7435 34.9714C80.7684 35.071 80.7684 35.2369 80.7352 35.3364C80.6855 35.494 80.6275 35.5106 80.089 35.4857L79.4925 35.4608L79.4677 35.1871C79.4428 34.9714 79.4097 34.9217 79.2357 34.9217C79.0617 34.9217 79.0369 34.9631 79.0369 35.212C79.0369 35.4194 79.1031 35.577 79.244 35.7097C79.418 35.8922 79.5174 35.9171 80.0228 35.9171C80.7932 35.9171 80.9921 35.8341 81.0998 35.4525C81.2986 34.7392 81.0252 34.4074 80.2133 34.3576C79.6002 34.3161 79.4511 34.2415 79.4511 33.9677C79.4511 33.6774 79.6334 33.5862 80.1719 33.6111C80.6275 33.6359 80.6524 33.6442 80.6773 33.8599C80.7021 34.0424 80.7518 34.0922 80.9092 34.0922C81.0749 34.0922 81.1081 34.0507 81.1081 33.8516C81.1081 33.412 80.8844 33.2461 80.2299 33.2129C79.9151 33.1963 79.5588 33.2212 79.4345 33.271Z" fill="white"/>
<path d="M84.1983 33.2378C84.0906 33.2544 83.9332 33.3705 83.8421 33.4866C83.7012 33.6691 83.6764 33.8184 83.6764 34.5982C83.6764 35.3862 83.7012 35.5272 83.8421 35.6682C84.0575 35.8839 84.3226 35.9419 84.9605 35.9005C85.7642 35.8507 85.8636 35.718 85.8967 34.6894C85.9299 33.7272 85.847 33.4617 85.4576 33.3041C85.1925 33.188 84.6126 33.1548 84.1983 33.2378ZM85.3416 33.6774C85.4825 33.7521 85.499 33.8599 85.499 34.5401C85.499 35.1041 85.4659 35.3447 85.3831 35.4111C85.3085 35.4691 85.0434 35.5023 84.6954 35.4857L84.1321 35.4608L84.1072 34.6396C84.0906 34.1087 84.1155 33.7852 84.1818 33.7106C84.2978 33.5696 85.1014 33.553 85.3416 33.6774Z" fill="white"/>
<path d="M90.3291 33.271C89.8983 33.3954 89.7906 33.7106 89.8237 34.6811C89.8568 35.718 89.9563 35.8507 90.7599 35.9005C91.3978 35.9419 91.6629 35.8839 91.8783 35.6682C92.0275 35.5189 92.044 35.3862 92.044 34.5982C92.044 33.7687 92.0275 33.6691 91.8535 33.47C91.6961 33.2793 91.5884 33.2378 91.1327 33.2129C90.8344 33.1963 90.4699 33.2212 90.3291 33.271ZM91.5386 33.7106C91.6049 33.7852 91.6298 34.1087 91.6132 34.6396L91.5884 35.4608L91.025 35.4857C90.677 35.5023 90.4119 35.4691 90.3374 35.4111C90.2545 35.3447 90.2214 35.1041 90.2214 34.5401C90.2214 33.8931 90.2462 33.7521 90.3705 33.6857C90.5859 33.553 91.4227 33.5696 91.5386 33.7106Z" fill="white"/>
<path d="M100.188 33.2295C100.08 33.2544 99.9228 33.3705 99.8317 33.4866C99.6909 33.6691 99.666 33.8184 99.666 34.5899C99.666 35.8092 99.7157 35.8756 100.702 35.8756C101.356 35.8756 101.431 35.859 101.58 35.6765C101.671 35.5604 101.737 35.353 101.737 35.1622C101.737 34.8719 101.712 34.8387 101.538 34.8387C101.364 34.8387 101.331 34.8802 101.306 35.1456L101.282 35.4608H100.702H100.122L100.097 34.6396C100.08 34.1088 100.105 33.7853 100.171 33.7106C100.287 33.5696 101.083 33.553 101.224 33.694C101.282 33.7521 101.323 33.8765 101.323 33.9843C101.323 34.1336 101.373 34.1751 101.53 34.1751C101.704 34.1751 101.737 34.1336 101.737 33.9346C101.737 33.7936 101.654 33.5862 101.547 33.47C101.398 33.2876 101.282 33.2461 100.867 33.2212C100.594 33.2046 100.287 33.2129 100.188 33.2295Z" fill="white"/>
<path d="M107.885 33.2959C107.528 33.4618 107.454 33.7023 107.454 34.6396C107.454 35.4028 107.462 35.4442 107.694 35.6765C107.918 35.9005 107.984 35.9171 108.522 35.9171C109.558 35.9171 109.691 35.7512 109.691 34.5069C109.691 33.7687 109.674 33.6608 109.5 33.4618C109.334 33.271 109.235 33.2378 108.73 33.2129C108.34 33.188 108.075 33.2129 107.885 33.2959ZM109.177 33.694C109.243 33.7604 109.276 34.0839 109.276 34.5982C109.276 35.2535 109.252 35.4111 109.144 35.4525C108.912 35.5438 108.067 35.5023 107.967 35.4028C107.835 35.27 107.835 33.8267 107.967 33.694C108.1 33.5613 109.044 33.5613 109.177 33.694Z" fill="white"/>
<path d="M112.698 33.271C112.267 33.3954 112.159 33.7106 112.193 34.6811C112.226 35.718 112.325 35.8507 113.129 35.9005C113.767 35.9419 114.032 35.8839 114.247 35.6682C114.396 35.5189 114.413 35.3862 114.413 34.565C114.413 33.6774 114.405 33.6111 114.214 33.4369C114.057 33.2876 113.891 33.2378 113.485 33.2129C113.195 33.1963 112.839 33.2212 112.698 33.271ZM113.908 33.7106C113.974 33.7852 113.999 34.1087 113.982 34.6396L113.957 35.4608L113.394 35.4857C113.046 35.5023 112.781 35.4691 112.706 35.4111C112.532 35.27 112.541 33.9014 112.723 33.7272C112.889 33.553 113.767 33.5447 113.908 33.7106Z" fill="white"/>
<path d="M115.349 33.2378C115.241 33.2544 115.084 33.3705 114.993 33.4866C114.852 33.6691 114.827 33.8184 114.827 34.5982C114.827 35.3862 114.852 35.5272 114.993 35.6682C115.208 35.8839 115.473 35.9419 116.111 35.9005C116.832 35.859 116.998 35.6931 117.047 35.0046L117.081 34.5069H116.534C116.004 34.5069 115.987 34.5152 115.987 34.7143C115.987 34.8968 116.02 34.9217 116.318 34.9217C116.608 34.9217 116.65 34.9465 116.65 35.1041C116.65 35.4608 116.55 35.5106 115.896 35.4857L115.283 35.4608L115.258 34.6396C115.241 34.1087 115.266 33.7852 115.333 33.7106C115.449 33.5613 116.41 33.553 116.55 33.694C116.608 33.7521 116.65 33.8599 116.65 33.9429C116.65 34.0507 116.716 34.0922 116.857 34.0922C117.014 34.0922 117.064 34.0507 117.064 33.9014C117.064 33.3539 116.294 33.0553 115.349 33.2378Z" fill="white"/>
<path d="M118.754 33.2959C118.39 33.4535 118.282 33.835 118.323 34.7806C118.357 35.4691 118.373 35.5438 118.589 35.718C118.771 35.8839 118.903 35.9171 119.342 35.9171C119.997 35.9171 120.262 35.8009 120.378 35.4774C120.527 35.0378 120.486 34.8387 120.254 34.8387C120.08 34.8387 120.047 34.8802 120.047 35.071C120.047 35.4111 119.906 35.5023 119.367 35.5023C118.771 35.5023 118.721 35.4194 118.721 34.5152C118.721 33.6774 118.804 33.5779 119.458 33.6111C119.906 33.6359 119.922 33.6442 120.005 33.9014C120.063 34.1088 120.13 34.1751 120.27 34.1751C120.486 34.1751 120.519 34.0009 120.378 33.6359C120.221 33.2295 119.334 33.047 118.754 33.2959Z" fill="white"/>
<path d="M39.8499 34.5899C39.8499 35.859 39.8581 35.9171 40.0155 35.9171C40.1647 35.9171 40.1812 35.859 40.1812 35.4277V34.9383L40.8109 34.9051C41.5979 34.8719 41.7554 34.7226 41.7554 34.0424C41.7554 33.3539 41.6228 33.2627 40.6369 33.2627H39.8499V34.5899ZM41.2417 33.6691C41.3163 33.7106 41.3411 33.8682 41.3245 34.1005L41.2997 34.4654L40.7446 34.4903L40.1812 34.5152V34.0507V33.5945H40.6618C40.9186 33.5945 41.1837 33.6277 41.2417 33.6691Z" fill="white"/>
<path d="M42.0867 33.8848C42.0867 34.2415 42.0536 34.5069 42.0039 34.5069C41.9624 34.5069 41.921 34.5982 41.921 34.7143C41.921 34.8304 41.9624 34.9217 42.0039 34.9217C42.0536 34.9217 42.0867 35.1456 42.0867 35.4194V35.9171H43.0395H43.9922V35.7097C43.9922 35.5023 43.9839 35.5023 43.2466 35.5023H42.501V35.0544C42.501 34.6479 42.5258 34.5816 42.7495 34.424C42.9152 34.3078 42.998 34.1751 42.998 34.0424C42.998 33.8433 42.9898 33.8433 42.8158 33.9594C42.5341 34.1585 42.501 34.1253 42.501 33.6774C42.501 33.2876 42.4844 33.2627 42.2938 33.2627C42.095 33.2627 42.0867 33.2793 42.0867 33.8848Z" fill="white"/>
<path d="M49.2946 34.5899V35.9171H49.5017C49.7088 35.9171 49.7088 35.9005 49.7088 35.2783V34.6313L50.355 35.2783C50.9101 35.8258 51.0344 35.9171 51.2829 35.9171H51.5729L50.8687 35.212L50.1727 34.5152L50.3716 34.283C50.4876 34.1502 50.7444 33.8765 50.9432 33.6525L51.316 33.2627H51.0758C50.8852 33.2627 50.703 33.3871 50.2722 33.8184L49.7088 34.3742V33.8184C49.7088 33.2793 49.7005 33.2627 49.5017 33.2627H49.2946V34.5899Z" fill="white"/>
<path d="M51.6143 34.5899V35.9171H51.8214H52.0285V34.5899V33.2627H51.8214H51.6143V34.5899Z" fill="white"/>
<path d="M53.7683 34.5899V35.9171H53.9754C54.1743 35.9171 54.1826 35.8922 54.1826 35.4277V34.9383L54.8039 34.9051C55.5992 34.8719 55.7152 34.7641 55.7152 34.1005C55.7152 33.3456 55.5992 33.2627 54.5802 33.2627H53.7683V34.5899ZM55.2099 33.7272C55.3507 33.8599 55.3673 34.0175 55.2927 34.3161C55.243 34.4903 55.1933 34.5069 54.7128 34.5069H54.1826V34.0507V33.5945H54.6299C54.9282 33.5945 55.127 33.6359 55.2099 33.7272Z" fill="white"/>
<path d="M56.378 33.3622C56.3117 33.5447 55.6075 35.4525 55.5164 35.6931C55.4336 35.9005 55.4418 35.9171 55.6324 35.9171C55.7981 35.9171 55.8726 35.8507 55.9721 35.5853L56.1046 35.2535H56.7177H57.3225L57.4219 35.5853C57.5047 35.8507 57.5627 35.9171 57.7202 35.9171C57.8196 35.9171 57.9107 35.8922 57.9107 35.8507C57.9107 35.8175 57.7036 35.2203 57.4468 34.5235L56.9828 33.2627H56.6928C56.5437 33.2627 56.3946 33.3124 56.378 33.3622ZM56.9497 34.2747L57.1568 34.8387H56.6928C56.2952 34.8387 56.2455 34.8221 56.2952 34.6894C56.3283 34.6147 56.4277 34.3493 56.5189 34.1088C56.61 33.8682 56.6928 33.6774 56.7094 33.694C56.726 33.7106 56.8337 33.9677 56.9497 34.2747Z" fill="white"/>
<path d="M58.1592 34.5899V35.9171H58.3663C58.5651 35.9171 58.5734 35.8922 58.5734 35.4194V34.9217H59.1451C59.783 34.9217 59.8161 34.9548 59.8161 35.6018C59.8161 35.8839 59.841 35.9171 60.0233 35.9171C60.2138 35.9171 60.2304 35.8922 60.2304 35.5189C60.2304 35.3032 60.1807 35.0378 60.1227 34.9217C60.0315 34.7475 60.0398 34.6728 60.131 34.482C60.2801 34.1917 60.2138 33.6442 60.015 33.4203C59.8907 33.2876 59.7581 33.2627 59.0125 33.2627H58.1592V34.5899ZM59.6836 33.7272C59.8161 33.8599 59.8576 34.1419 59.7664 34.3742C59.725 34.4737 59.5924 34.5069 59.1451 34.5069H58.5734V34.0507V33.5945H59.0622C59.4019 33.5945 59.6007 33.6359 59.6836 33.7272Z" fill="white"/>
<path d="M60.6447 34.5899V35.9171H60.8518C61.0506 35.9171 61.0589 35.9005 61.0589 35.2949C61.0589 34.9548 61.092 34.6728 61.1335 34.6728C61.1749 34.6728 61.4648 34.9548 61.7797 35.2949C62.2768 35.8341 62.3927 35.9171 62.6413 35.9171H62.923L62.227 35.2203L61.5311 34.5152L62.1028 33.9097L62.6744 33.3042L62.4259 33.2793C62.2105 33.2461 62.1111 33.3207 61.6803 33.7936C61.4069 34.0922 61.1583 34.341 61.1252 34.341C61.0837 34.341 61.0589 34.1005 61.0589 33.8018C61.0589 33.2793 61.0506 33.2627 60.8518 33.2627H60.6447V34.5899Z" fill="white"/>
<path d="M64.3728 34.5899V35.9171H64.5799C64.7788 35.9171 64.787 35.8922 64.787 35.4194V34.9217H65.2924C65.7812 34.9217 66.0878 34.8304 66.212 34.6396C66.2452 34.5899 66.2783 34.3161 66.2783 34.0341C66.2783 33.3373 66.1706 33.2627 65.1433 33.2627H64.3728V34.5899ZM65.7315 33.6442C65.8309 33.6774 65.8641 33.8101 65.8641 34.1005V34.5069H65.3256H64.787V34.0507V33.5945H65.193C65.4167 33.5945 65.6569 33.6194 65.7315 33.6442Z" fill="white"/>
<path d="M66.6925 34.5899V35.9171H66.8996C67.0985 35.9171 67.1067 35.8922 67.1067 35.4194V34.9134L67.6701 34.9383L68.2252 34.9631L68.25 35.4359C68.2749 35.8922 68.2915 35.9171 68.482 35.9171C68.6974 35.9171 68.6974 35.9088 68.6477 35.3613C68.598 34.6645 68.598 34.7392 68.6477 34.1171C68.6891 33.6774 68.6726 33.5862 68.5234 33.4369C68.366 33.2793 68.25 33.2627 67.521 33.2627H66.6925V34.5899ZM68.0843 33.6442C68.25 33.694 68.2749 33.7438 68.25 34.0839L68.2252 34.4654L67.6701 34.4903L67.1067 34.5152V34.0507V33.5945H67.5044C67.7198 33.5945 67.9766 33.6194 68.0843 33.6442Z" fill="white"/>
<path d="M69.0952 33.4286C69.0952 33.5779 69.1532 33.5945 69.7994 33.5945C70.1888 33.5945 70.5036 33.6194 70.5036 33.6442C70.5036 33.6691 70.1722 34.1005 69.758 34.5982C69.2526 35.2037 69.0123 35.5604 69.0123 35.7097V35.9171H70.0479H71.0835V35.7097C71.0835 35.5106 71.067 35.5106 70.3048 35.4857L69.526 35.4608L70.3048 34.5069C70.7356 33.9843 71.0835 33.4866 71.0835 33.412C71.0835 33.2793 70.9841 33.2627 70.0894 33.2627C69.1532 33.2627 69.0952 33.271 69.0952 33.4286Z" fill="white"/>
<path d="M71.4149 34.5899V35.9171H72.3677H73.3204V35.7097C73.3204 35.5023 73.3121 35.5023 72.5748 35.5023H71.8292V35.129V34.7558H72.5748C73.3121 34.7558 73.3204 34.7558 73.3204 34.5484C73.3204 34.341 73.3121 34.341 72.5748 34.341H71.8292V33.9677V33.5945H72.5748C73.2624 33.5945 73.3204 33.5862 73.3204 33.4286C73.3204 33.271 73.2624 33.2627 72.3677 33.2627H71.4149V34.5899Z" fill="white"/>
<path d="M73.7346 34.5899C73.7346 35.859 73.7429 35.9171 73.9003 35.9171C74.0577 35.9171 74.066 35.859 74.066 34.9465C74.066 34.4157 74.0909 34.0092 74.124 34.0424C74.1654 34.0756 74.3394 34.5069 74.53 34.988C74.8282 35.7594 74.8945 35.8756 75.0768 35.9005C75.2673 35.9253 75.3087 35.8673 75.5987 35.071C75.7727 34.5982 75.9467 34.1834 75.9881 34.1419C76.0212 34.0922 76.0544 34.4737 76.0544 34.988V35.9171H76.2615H76.4686V34.6313C76.4686 33.9263 76.4935 33.3456 76.5349 33.3456C76.568 33.3456 76.8083 33.6442 77.0734 34.0092L77.5456 34.6728V35.2949C77.5456 35.9005 77.5539 35.9171 77.7527 35.9171C77.9516 35.9171 77.9599 35.9005 77.9599 35.3198C77.9599 34.6811 77.8853 34.8221 78.8546 33.5281L79.0535 33.2627H78.8215C78.6226 33.2627 78.5232 33.3539 78.2084 33.8018C78.0013 34.1005 77.8107 34.341 77.7859 34.341C77.761 34.341 77.5705 34.1005 77.3551 33.8018L76.9657 33.2627H76.4355H75.8969L75.5738 34.1088C75.3916 34.5816 75.2176 35.0544 75.1845 35.1622C75.1513 35.2618 75.1016 35.3198 75.0685 35.2866C75.027 35.2452 74.8365 34.7724 74.6377 34.2415C74.2731 33.271 74.2731 33.2627 74.008 33.2627H73.7346V34.5899Z" fill="white"/>
<path d="M81.6051 33.835C81.6051 34.1585 81.572 34.4406 81.5223 34.4654C81.4809 34.4903 81.4395 34.6065 81.4395 34.7226C81.4395 34.8304 81.4809 34.9217 81.5223 34.9217C81.572 34.9217 81.6051 35.1456 81.6051 35.4194V35.9171H82.5165H83.4278V35.7097C83.4278 35.5023 83.4195 35.5023 82.7236 35.5023H82.0194V35.0212C82.0194 34.5733 82.036 34.5318 82.2679 34.3991C82.4419 34.2912 82.5165 34.1834 82.5165 34.0341C82.5165 33.8267 82.5082 33.8267 82.3094 33.9594C82.2017 34.0341 82.0857 34.0922 82.0608 34.0922C82.036 34.0922 82.0194 33.9014 82.0194 33.6774C82.0194 33.2876 82.0028 33.2627 81.8123 33.2627C81.6134 33.2627 81.6051 33.2793 81.6051 33.835Z" fill="white"/>
<path d="M86.1867 33.4037C86.2033 33.4866 86.3607 34.0839 86.5347 34.7309C86.8412 35.8922 86.8578 35.9171 87.0732 35.9171C87.2969 35.9171 87.3135 35.8839 87.5454 34.988C87.6863 34.4737 87.8271 34.059 87.8685 34.0756C87.91 34.0839 88.0508 34.5069 88.1834 35.0046C88.4153 35.8839 88.4319 35.9171 88.6473 35.9171C88.8627 35.9171 88.8793 35.8839 89.1858 34.7309C89.3598 34.0839 89.5172 33.4866 89.5338 33.4037C89.5669 33.2959 89.5255 33.2627 89.3764 33.2627C89.1858 33.2627 89.1527 33.3207 88.9373 34.1502C88.813 34.6479 88.6805 35.071 88.6556 35.1041C88.6225 35.1373 88.4899 34.7392 88.3573 34.2166L88.1171 33.2627H87.8603H87.5951L87.3549 34.2166C87.2306 34.7392 87.0981 35.1373 87.0649 35.1041C87.0401 35.071 86.9075 34.6479 86.7832 34.1502C86.5678 33.3207 86.5347 33.2627 86.3441 33.2627C86.195 33.2627 86.1536 33.2959 86.1867 33.4037Z" fill="white"/>
<path d="M95.2751 33.4286C95.2751 33.5696 95.3331 33.5945 95.6894 33.5945H96.1036V34.7558V35.9171H96.3107H96.5179V34.7558V33.5945H96.8907C97.2055 33.5945 97.2635 33.5696 97.2635 33.4286C97.2635 33.271 97.2055 33.2627 96.2693 33.2627C95.3331 33.2627 95.2751 33.271 95.2751 33.4286Z" fill="white"/>
<path d="M97.4291 34.5899V35.9171H98.3818H99.3346V35.7097C99.3346 35.5023 99.3263 35.5023 98.5889 35.5023H97.8433V35.129V34.7558H98.5889C99.3263 34.7558 99.3346 34.7558 99.3346 34.5484C99.3346 34.341 99.3263 34.341 98.5889 34.341H97.8433V33.9677V33.5945H98.5889C99.2766 33.5945 99.3346 33.5862 99.3346 33.4286C99.3346 33.271 99.2766 33.2627 98.3818 33.2627H97.4291V34.5899Z" fill="white"/>
<path d="M102.151 34.5899V35.9171H102.359C102.557 35.9171 102.566 35.9005 102.566 35.3364V34.7558H103.229H103.891V35.3364C103.891 35.9005 103.9 35.9171 104.098 35.9171H104.306V34.5899V33.2627H104.098C103.9 33.2627 103.891 33.2793 103.891 33.8018V34.341H103.229H102.566V33.8018C102.566 33.2793 102.557 33.2627 102.359 33.2627H102.151V34.5899Z" fill="white"/>
<path d="M104.803 34.5899V35.9171H105.01H105.209L105.233 34.9051L105.258 33.8848L105.88 34.8968C106.468 35.8673 106.509 35.9171 106.766 35.9171H107.04V34.5899V33.2627H106.832H106.625V34.2664C106.625 34.8138 106.592 35.2452 106.559 35.2203C106.518 35.1954 106.228 34.7475 105.913 34.2249C105.374 33.3207 105.325 33.2627 105.076 33.2627H104.803V34.5899Z" fill="white"/>
<path d="M110.188 34.5899V35.9171H111.099H112.01V35.7097C112.01 35.5023 112.002 35.5023 111.265 35.5023H110.519V34.3825C110.519 33.3207 110.511 33.2627 110.353 33.2627C110.196 33.2627 110.188 33.3207 110.188 34.5899Z" fill="white"/>
<path d="M117.478 34.5899V35.9171H117.685H117.893V34.5899V33.2627H117.685H117.478V34.5899Z" fill="white"/>
<path d="M120.792 33.4286C120.792 33.5696 120.858 33.5862 121.513 33.6111L122.225 33.6359L121.472 34.5484C120.925 35.2037 120.709 35.5272 120.709 35.6848V35.9171H121.704H122.698V35.7097C122.698 35.5106 122.681 35.5106 121.952 35.4857L121.206 35.4608L121.952 34.5484C122.399 34.0009 122.698 33.5613 122.698 33.4535C122.698 33.2627 122.681 33.2627 121.745 33.2627C120.85 33.2627 120.792 33.271 120.792 33.4286Z" fill="white"/>
<path d="M123.112 34.5899V35.9171H123.319H123.526V34.9134C123.526 34.3659 123.559 33.9346 123.601 33.9594C123.634 33.9843 123.924 34.4323 124.239 34.9631C124.777 35.8673 124.819 35.9171 125.075 35.9171H125.349V34.5899V33.2627H125.142H124.943L124.918 34.2747L124.893 35.2949L124.272 34.283C123.684 33.3124 123.634 33.2627 123.385 33.2627H123.112V34.5899Z" fill="white"/>
<path d="M125.432 33.3042C125.432 33.329 125.655 33.6525 125.929 34.0258L126.426 34.706V35.3115C126.426 35.9005 126.434 35.9171 126.633 35.9171C126.832 35.9171 126.84 35.9005 126.84 35.3115V34.6977L127.379 33.9843C127.917 33.2627 127.917 33.2627 127.685 33.2627C127.495 33.2627 127.379 33.3622 127.056 33.8018C126.84 34.1005 126.65 34.341 126.633 34.341C126.616 34.341 126.426 34.1005 126.219 33.8018C125.929 33.3954 125.78 33.2627 125.631 33.2627C125.523 33.2627 125.432 33.2793 125.432 33.3042Z" fill="white"/>
<path d="M93.2867 34.8802C93.2867 35.0793 93.3033 35.0876 93.8253 35.0876C94.3472 35.0876 94.3638 35.0793 94.3638 34.8802C94.3638 34.6811 94.3472 34.6728 93.8253 34.6728C93.3033 34.6728 93.2867 34.6811 93.2867 34.8802Z" fill="white"/>
</svg>
